<?xml version="1.0" encoding="UTF-8"?><svg xmlns="http://www.w3.org/2000/svg" viewBox="0 0 269 269"><defs><style>.d{fill:#29abe2;stroke:#0071bc;stroke-miterlimit:10;stroke-width:4px;}.e{fill:#fff;}</style></defs><g id="a"/><g id="b"><g id="c"><circle class="d" cx="134.5" cy="134.5" r="132.5"/><path class="e" d="M145.43,169.24l-.08,31.78c-.01,4.41-3.59,7.97-7.99,7.97h-7.37c-4.41,0-7.99-3.58-7.99-7.99v-47.01c0-16,13.06-17.56,13.06-17.56,21.83,0,39.35-18.43,37.86-40.58-1.26-18.65-16.29-33.81-34.93-35.2-22.11-1.66-40.7,15.65-40.98,37.33,0,0-2.11,14-16.56,14s-17.44-14-17.44-14c.68-40.63,34.59-72.91,73.74-71.98,37.28,.88,68.72,31.63,70.24,70.24,0,0,2.88,55.23-61.55,72.98Z"/><circle class="e" cx="134" cy="230" r="13"/></g></g></svg>