<?xml version="1.0" encoding="UTF-8" standalone="no"?>
<!-- Created with Inkscape (http://www.inkscape.org/) -->

<svg
   width="349.83401mm"
   height="113.65046mm"
   viewBox="0 0 1322.2056 429.54506"
   version="1.1"
   id="svg1"
   xml:space="preserve"
   sodipodi:docname="DragnDrop.svg"
   inkscape:version="1.3.2 (091e20ef0f, 2023-11-25)"
   inkscape:export-filename="drawing.png"
   inkscape:export-xdpi="108.70415"
   inkscape:export-ydpi="108.70415"
   xmlns:inkscape="http://www.inkscape.org/namespaces/inkscape"
   xmlns:sodipodi="http://sodipodi.sourceforge.net/DTD/sodipodi-0.dtd"
   xmlns:xlink="http://www.w3.org/1999/xlink"
   xmlns="http://www.w3.org/2000/svg"
   xmlns:svg="http://www.w3.org/2000/svg"><sodipodi:namedview
     id="namedview1"
     pagecolor="#ffffff"
     bordercolor="#000000"
     borderopacity="0.25"
     inkscape:showpageshadow="2"
     inkscape:pageopacity="0.0"
     inkscape:pagecheckerboard="0"
     inkscape:deskcolor="#d1d1d1"
     inkscape:document-units="mm"
     inkscape:zoom="0.93360119"
     inkscape:cx="560.73193"
     inkscape:cy="396.85039"
     inkscape:window-width="1920"
     inkscape:window-height="1011"
     inkscape:window-x="0"
     inkscape:window-y="0"
     inkscape:window-maximized="1"
     inkscape:current-layer="layer1" /><defs
     id="defs1"><style
       id="style1">.j{fill:#fff;}.k{fill:url(#h);opacity:.75;}.l{fill:url(#f);opacity:.25;}.m{fill:url(#g);opacity:.5;}.n{fill:url(#i);}.o{fill:url(#e);}.p{fill:none;}.p,.q{stroke:#000;stroke-miterlimit:10;stroke-width:.18px;}.q{fill:url(#d);}</style><linearGradient
       id="d"
       x1="0.23999999"
       y1="104.09"
       x2="208.24001"
       y2="104.09"
       gradientUnits="userSpaceOnUse"><stop
         offset="0"
         stop-color="#19006a"
         id="stop1" /><stop
         offset="1"
         stop-color="#8700df"
         id="stop2" /></linearGradient><linearGradient
       id="e"
       x1="62.060001"
       y1="104.54"
       x2="126.71"
       y2="104.54"
       gradientUnits="userSpaceOnUse"><stop
         offset="0"
         stop-color="#400094"
         id="stop3" /><stop
         offset="1"
         stop-color="#6100b7"
         id="stop4" /></linearGradient><linearGradient
       id="f"
       x1="62.330002"
       y1="104.26"
       x2="126.98"
       y2="104.26"
       xlink:href="#e" /><linearGradient
       id="g"
       x1="70.139999"
       y1="104.26"
       x2="134.78999"
       y2="104.26"
       xlink:href="#e" /><linearGradient
       id="h"
       x1="77.949997"
       y1="104.26"
       x2="142.60001"
       y2="104.26"
       xlink:href="#e" /><linearGradient
       id="i"
       x1="85.75"
       y1="104.26"
       x2="150.39999"
       y2="104.26"
       xlink:href="#e" /><linearGradient
       inkscape:collect="always"
       xlink:href="#e"
       id="linearGradient1"
       gradientUnits="userSpaceOnUse"
       x1="62.060001"
       y1="104.54"
       x2="126.71"
       y2="104.54" /></defs><g
     inkscape:label="Layer 1"
     inkscape:groupmode="layer"
     id="layer1"
     transform="translate(-41.960559,-189.34442)"><g
       id="g1"
       transform="matrix(2.0624352,0,0,2.0624352,41.965315,189.34442)"><g
         id="a" /><g
         id="b"><g
           id="c"><rect
             class="q"
             x="0.23999999"
             y="0.090000004"
             width="208"
             height="208"
             rx="30.280001"
             ry="30.280001"
             id="rect4"
             style="fill:url(#d)" /><path
             class="p"
             d="m 0.24,35.59 c 0,0 -4,-31.5 29,-35.5 h 126.67 l 24.81,0.13 c 0,0 24.53,1.65 27.53,28.76 v 142.78 c 0,0 3.11,33.33 -29.44,36.33 H 34.69 c 0,0 -34.75,3.67 -34.6,-35.67 0.3,-40.67 0.15,-40.33 0.15,-40.33 z"
             id="path4" /><path
             class="o"
             d="M 122.44,97.16 74.85,69.68 C 69.16,66.4 62.06,70.5 62.06,77.07 v 54.96 c 0,6.56 7.11,10.67 12.79,7.39 l 47.59,-27.48 c 5.69,-3.28 5.69,-11.49 0,-14.77 z"
             id="path5"
             style="fill:url(#linearGradient1)" /><circle
             class="j"
             cx="103.99"
             cy="104.34"
             r="62.25"
             id="circle5" /><g
             id="g9"><path
               class="l"
               d="M 122.72,96.87 75.13,69.39 c -5.69,-3.28 -12.79,0.82 -12.79,7.39 v 54.96 c 0,6.56 7.11,10.67 12.79,7.39 l 47.59,-27.48 c 5.69,-3.28 5.69,-11.49 0,-14.77 z"
               id="path6"
               style="fill:url(#f)" /><path
               class="m"
               d="M 130.53,96.87 82.94,69.39 c -5.69,-3.28 -12.79,0.82 -12.79,7.39 v 54.96 c 0,6.56 7.11,10.67 12.79,7.39 l 47.59,-27.48 c 5.69,-3.28 5.69,-11.49 0,-14.77 z"
               id="path7"
               style="fill:url(#g)" /><path
               class="k"
               d="M 138.33,96.87 90.74,69.39 c -5.69,-3.28 -12.79,0.82 -12.79,7.39 v 54.96 c 0,6.56 7.11,10.67 12.79,7.39 l 47.59,-27.48 c 5.69,-3.28 5.69,-11.49 0,-14.77 z"
               id="path8"
               style="fill:url(#h)" /><path
               class="n"
               d="M 146.14,96.87 98.55,69.39 c -5.69,-3.28 -12.79,0.82 -12.79,7.39 v 54.96 c 0,6.56 7.11,10.67 12.79,7.39 l 47.59,-27.48 c 5.69,-3.28 5.69,-11.49 0,-14.77 z"
               id="path9"
               style="fill:url(#i)" /></g></g></g></g><text
       xml:space="preserve"
       style="font-size:85.3333px;fill:#000000"
       x="868.46552"
       y="422.59094"
       id="text1"><tspan
         sodipodi:role="line"
         id="tspan1"
         x="868.46552"
         y="422.59094"
         style="font-style:normal;font-variant:normal;font-weight:bold;font-stretch:normal;font-size:85.3333px;font-family:Ubuntu;-inkscape-font-specification:'Ubuntu Bold';text-align:center;text-anchor:middle">Drop video here</tspan></text></g></svg>
